<svg width="89" height="92" viewBox="0 0 89 92" fill="none" xmlns="http://www.w3.org/2000/svg">
<path fill-rule="evenodd" clip-rule="evenodd" d="M54.4494 37.2C51.8359 37.2 49.8434 35.7098 48.4718 33.5555C48.2041 33.135 47.96 32.6891 47.7396 32.2242C46.7128 30.0581 46.1994 27.4764 46.1994 25.1C46.1994 22.8012 46.7332 20.0354 47.731 17.4068C49.598 12.4883 53.0897 8.05 57.7494 8.05C63.2494 8.05 65.9994 14.65 65.9994 20.15C65.9994 22.6347 65.3758 25.665 64.2167 28.478C62.8941 31.6875 60.8743 34.6141 58.2881 36.1245C57.1201 36.8067 55.8365 37.2 54.4494 37.2ZM55.5836 44.1569C55.5797 44.1572 55.5758 44.1575 55.5719 44.1578C55.5754 44.1598 55.5788 44.1618 55.5823 44.1638C55.5827 44.1615 55.5831 44.1592 55.5836 44.1569ZM62.1524 49.0642C62.2437 53.9073 64.4541 58.65 69.2994 58.65C69.6325 58.65 69.9608 58.6285 70.2841 58.5868C76.8999 57.7336 81.3994 48.4169 81.3994 41.6C81.3994 36.65 78.6494 31.7 74.2494 31.7C72.6593 31.7 71.178 32.1896 69.8358 33.0297C69.143 33.4634 68.4872 33.9904 67.8727 34.5917C66.201 36.2272 64.8342 38.4121 63.856 40.7613C62.7578 43.3988 62.1494 46.2434 62.1494 48.75C62.1494 48.8547 62.1504 48.9595 62.1524 49.0642ZM72.5576 24.7944C72.8486 23.1968 72.9994 21.6275 72.9994 20.15C72.9994 16.3921 72.0898 12.0913 69.9704 8.48836C67.8034 4.80435 63.7783 1.05 57.7494 1.05C51.2695 1.05 46.8108 5.20437 44.1627 9.11407C41.5525 5.00269 36.9994 0.5 30.2494 0.5C24.2205 0.5 20.1954 4.25435 18.0284 7.93836C15.959 11.4563 15.043 15.6396 15.0009 19.3332C14.8887 21.0713 14.9764 22.8965 15.2502 24.7319C14.9376 24.7108 14.6207 24.7 14.2994 24.7C9.04812 24.7 5.18383 27.5075 2.94453 31.0641C0.874509 34.3517 0.149414 38.234 0.149414 41.6C0.149414 46.7266 2.03279 52.2992 4.86352 56.6338C6.82707 59.6405 9.98573 63.1135 14.2577 64.7317C12.357 68.8258 11.1494 73.1569 11.1494 77.35C11.1494 81.9333 12.8783 86.0094 16.5072 88.6487C19.7334 90.995 23.5228 91.5 26.3994 91.5C31.0912 91.5 35.0657 89.9477 37.7771 88.8887C37.8355 88.8659 37.8933 88.8434 37.9505 88.821C41.0368 87.6166 42.5279 87.1 43.9994 87.1C45.104 87.1 46.371 87.5392 49.3863 88.7762C49.4534 88.8037 49.5215 88.8317 49.5906 88.8601C52.1282 89.9026 56.0167 91.5 60.4994 91.5C63.0262 91.5 66.8961 91.2338 70.3225 89.257C74.4093 86.8992 76.8494 82.7199 76.8494 77.35C76.8494 73.2294 75.6832 68.9756 73.8391 64.9443C78.4906 63.452 81.8626 59.8422 83.9462 56.5487C86.747 52.1216 88.3994 46.5707 88.3994 41.6C88.3994 37.9405 87.4055 34.071 85.2988 30.9109C83.1472 27.6836 79.4068 24.7 74.2494 24.7C73.6709 24.7 73.107 24.7325 72.5576 24.7944ZM66.1802 65.2984C63.5084 60.4741 59.639 55.8609 55.4649 52.5616C51.6713 49.5632 47.6261 47.65 43.9994 47.65C41.8486 47.65 39.5507 48.3228 37.2453 49.4959C35.8764 50.1924 34.5049 51.0653 33.16 52.0784C28.7109 55.4299 24.5535 60.316 21.7474 65.4276C19.5244 69.4771 18.1494 73.6682 18.1494 77.35C18.1494 82.85 21.9994 84.5 26.3994 84.5C29.7712 84.5 32.7123 83.3516 35.5895 82.2282C38.3442 81.1527 41.0402 80.1 43.9994 80.1C46.6839 80.1 49.2374 81.1482 51.8516 82.2214C54.5935 83.347 57.4023 84.5 60.4994 84.5C64.8994 84.5 69.8494 83.4 69.8494 77.35C69.8494 73.629 68.445 69.3879 66.1802 65.2984ZM42.5704 40.7078C43.0436 40.6698 43.5201 40.65 43.9994 40.65C44.4787 40.65 44.9552 40.6698 45.4285 40.7078C44.9123 40.2443 44.4361 39.7525 43.9994 39.244C43.5627 39.7525 43.0865 40.2443 42.5704 40.7078ZM40.2592 32.2242C41.286 30.0581 41.7994 27.4764 41.7994 25.1C41.7994 22.7065 41.3063 19.9432 40.3821 17.3259C38.5454 12.1247 35.0059 7.5 30.2494 7.5C24.7494 7.5 21.9994 14.1 21.9994 19.6C21.8061 22.1126 22.2241 25.0326 23.1818 27.7635C24.0642 30.2799 25.4048 32.6357 27.1477 34.3641C28.0867 35.2952 29.1424 36.0443 30.3061 36.5382C31.3089 36.9638 32.3918 37.2 33.5494 37.2C36.673 37.2 38.9096 35.0712 40.2592 32.2242ZM26.3983 48.5698C26.3699 46.35 25.8216 43.8785 24.8825 41.5268C23.321 37.6164 20.6789 34.0372 17.5503 32.4971C16.5129 31.9865 15.4221 31.7 14.2994 31.7C9.34941 31.7 7.14941 36.65 7.14941 41.6C7.14941 48.2123 11.8532 57.1764 17.7808 58.4874C18.2629 58.594 18.753 58.65 19.2494 58.65C24.1994 58.65 26.3994 53.7 26.3994 48.75C26.3994 48.6901 26.399 48.63 26.3983 48.5698Z" fill="#FFC59E"/>
</svg>
