<svg width="140" height="110" viewBox="0 0 140 110" fill="none" xmlns="http://www.w3.org/2000/svg">
<path fill-rule="evenodd" clip-rule="evenodd" d="M33.507 110C17.7285 110 8.81594 93.7836 5.71548 86.8127C-2.89518 67.5141 -1.721 47.4482 8.86198 33.1406C10.4837 30.9481 12.278 29.2779 13.3586 28.272L13.3586 28.272C13.7639 27.8948 14.0687 27.6111 14.2264 27.4283C17.5455 24.6377 21.4301 22.5998 25.6126 21.455C28.9491 20.5418 33.2443 20.4401 34.4356 20.5392C37.5697 20.8118 44.6143 23.6115 47.0446 27.5536C47.4828 28.2643 47.8357 29.0242 48.096 29.8176C49.151 33.3472 48.7117 37.1551 46.8809 40.3519C52.0662 39.3952 58.8581 36.965 58.8581 30.6976V5.11626C58.8581 2.29063 61.1487 0 63.9743 0H65.0724H74.2068H75.3049C78.1305 0 80.4212 2.29063 80.4212 5.11626V30.6976C80.4212 36.965 87.213 39.3952 92.3983 40.3519C90.5675 37.1551 90.1283 33.3472 91.1832 29.8176C91.4436 29.0242 91.7964 28.2643 92.2346 27.5536C94.6649 23.6115 101.71 20.8118 104.844 20.5392C106.035 20.4401 110.33 20.5418 113.667 21.455C117.849 22.5998 121.734 24.6377 125.053 27.4283C125.21 27.611 125.515 27.8946 125.92 28.2717L125.92 28.2719L125.921 28.272C127.001 29.2778 128.796 30.9481 130.417 33.1406C141 47.4482 142.174 67.5141 133.564 86.8127C130.463 93.7836 121.551 110 105.772 110C102.386 110.019 99.0269 109.393 95.8748 108.155C95.5918 108.052 94.8568 107.614 93.9872 107.038C88.9626 104.323 79.5903 96.8677 84.4245 78.2999C86.1133 75.1578 88.4837 72.4334 91.3621 70.3263C88.1249 69.2507 84.9722 67.9356 81.9303 66.3919L81.6259 66.2384C78.3143 64.5992 74.3745 63.5291 70.3886 63.2046C65.8243 63.3486 61.2372 64.4259 57.5755 66.2384L57.2711 66.3919C54.2291 67.9356 51.0765 69.2507 47.8393 70.3263C50.7176 72.4334 53.0881 75.1578 54.7769 78.2999C59.4696 96.3245 50.775 103.877 45.6658 106.787C44.6379 107.484 43.7272 108.037 43.4044 108.155C40.2523 109.393 36.8933 110.019 33.507 110ZM88.9438 96.6372C89.1239 96.867 89.3098 97.1112 89.5035 97.3657C91.0347 99.3767 93.0577 102.034 96.5605 103.402C99.8581 104.691 103.033 104.902 105.772 104.883C118.537 104.883 126.196 90.7931 128.89 84.7329C136.741 67.1355 135.774 48.9856 126.304 36.1822C121.567 29.2915 113.626 25.3139 105.271 25.6478C101.613 25.9573 97.1718 27.8785 96.0616 31.3806C95.2213 35.2194 96.6954 39.1958 99.8348 41.5594C100.656 42.2525 100.956 43.3847 100.586 44.3935C100.217 45.4023 99.2566 46.0728 98.1823 46.0719C97.2485 46.0719 75.3151 45.8698 75.3151 30.6976V5.11626H63.9641V30.6976C63.9641 45.8698 42.0307 46.0719 41.097 46.0719C40.0227 46.0728 39.0623 45.4023 38.6928 44.3935C38.3234 43.3847 38.6236 42.2525 39.4444 41.5594C42.5839 39.1958 44.0579 35.2194 43.2177 31.3806C42.1074 27.8785 37.6665 25.9573 34.0084 25.6478C25.6535 25.3139 17.7119 29.2915 12.9755 36.1822C3.50526 48.9856 2.53829 67.1355 10.3892 84.7329C13.0829 90.7931 20.7419 104.883 33.507 104.883C36.2466 104.902 39.4212 104.691 42.7188 103.402C46.2216 102.034 48.2445 99.3767 49.7757 97.3657L49.7772 97.3637C49.9168 97.1804 50.0523 97.0024 50.1844 96.8314C51.8726 92.4012 52.5661 86.9006 50.3407 80.6944C47.8393 76.2805 44.2545 73.3554 39.8758 71.5618C38.7809 71.0662 38.1786 69.8753 38.4284 68.6997C38.6782 67.5241 39.7126 66.6809 40.9144 66.6732C40.9156 66.6726 40.9283 66.6716 40.9528 66.6696C41.4162 66.6322 46.0707 66.2567 54.9841 61.8L55.2911 61.6465C59.7938 59.4161 64.7073 58.3554 69.6007 58.4643C74.4941 58.3554 79.4075 59.4161 83.9103 61.6465L84.2173 61.8C93.1307 66.2567 97.7852 66.6322 98.2486 66.6696C98.273 66.6716 98.2858 66.6726 98.287 66.6732C99.4888 66.6809 100.523 67.5241 100.773 68.6997C101.023 69.8753 100.42 71.0662 99.3256 71.5618C94.9469 73.3554 91.3621 76.2805 88.8607 80.6944C86.6677 86.8102 87.3092 92.2408 88.9438 96.6372ZM71.6486 51.1629V40.9304C71.6486 39.5176 70.5033 38.3723 69.0904 38.3723C67.6776 38.3723 66.5323 39.5176 66.5323 40.9304V51.1629C66.5323 52.5757 67.6776 53.721 69.0904 53.721C70.5033 53.721 71.6486 52.5757 71.6486 51.1629ZM17.0807 39.2236C14.1239 43.2624 12.0797 47.8954 11.0896 52.8021C10.7995 54.1845 11.6847 55.5404 13.067 55.8309C13.2405 55.8664 13.417 55.8844 13.594 55.8847C14.8069 55.8813 15.8507 55.0266 16.0933 53.8381C16.9363 49.6526 18.6756 45.6993 21.1917 42.2498C23.771 38.5122 27.9055 36.1453 32.4346 35.8136C33.8474 35.8136 34.9928 34.6683 34.9928 33.2554C34.9928 31.8426 33.8474 30.6973 32.4346 30.6973C26.2732 31.0108 20.6039 34.1591 17.0807 39.2236ZM124.63 77.7276C123.64 82.6343 121.596 87.2673 118.639 91.3062C115.115 96.3707 109.446 99.5189 103.285 99.8324C101.872 99.8324 100.727 98.6871 100.727 97.2743C100.727 95.8615 101.872 94.7162 103.285 94.7162C107.814 94.3845 111.948 92.0175 114.528 88.2799C117.044 84.8304 118.783 80.8771 119.626 76.6916C119.869 75.5032 120.912 74.6485 122.125 74.6451C122.302 74.6453 122.479 74.6633 122.652 74.6988C124.035 74.9893 124.92 76.3452 124.63 77.7276Z" fill="#FFC59E"/>
</svg>
