<svg width="132" height="92" viewBox="0 0 132 92" fill="none" xmlns="http://www.w3.org/2000/svg">
<path d="M121.167 0H105.397C101.04 0 97.2783 2.5866 95.5602 6.30353C92.7621 5.6524 89.7535 5.32258 86.5805 5.32258C83.4075 5.32258 80.3988 5.6524 77.6008 6.30353C75.8825 2.5866 72.1208 0 67.7641 0H51.9936C46.0206 0 41.1611 4.85952 41.1611 10.8325C41.1611 13.0297 41.8241 15.2845 42.9806 17.0186L49.8275 27.2892C50.9236 28.9335 52.4901 30.2326 54.2937 31.0668C50.9423 44.4946 51.9837 67.155 51.9837 66.7097C51.9837 76.9817 60.3407 85.3387 70.6127 85.3387C72.294 85.3387 73.9237 85.1143 75.4742 84.6949C77.9348 88.4464 82.1427 90.8387 86.5805 90.8387C91.0183 90.8387 95.2261 88.4464 97.6868 84.6949C99.2372 85.1143 100.867 85.3387 102.548 85.3387C112.82 85.3387 121.177 76.9817 121.177 66.7097C121.177 53.1508 121.823 41.8955 118.895 31.0537C120.687 30.2191 122.243 28.925 123.333 27.2892L130.18 17.0186C131.337 15.2843 132 13.0295 132 10.8325C132 4.85952 127.14 0 121.167 0ZM54.2563 24.3368L47.4091 14.066C46.8384 13.2099 46.4837 11.9708 46.4837 10.8325C46.4837 7.79439 48.9555 5.32258 51.9936 5.32258H67.7643C70.8022 5.32258 73.274 7.79439 73.274 10.8325C73.274 11.971 72.9194 13.2099 72.3486 14.0663L65.5013 24.3371C64.4774 25.8732 62.7635 26.7903 60.9171 26.7903H59.0182C57.1189 26.7903 55.2498 25.8273 54.2563 24.3368ZM86.5805 85.5161C84.2302 85.5161 81.9786 84.3693 80.4624 82.5151C82.9581 80.9541 85.06 78.8196 86.5805 76.2969C88.101 78.8196 90.2029 80.9541 92.6986 82.5151C91.1824 84.3693 88.9308 85.5161 86.5805 85.5161ZM84.0881 60.4537C84.4671 59.4452 85.4413 58.7258 86.5805 58.7258C87.7197 58.7258 88.6939 59.4452 89.0729 60.4537L86.5805 62.9461L84.0881 60.4537ZM115.855 66.7097C115.855 74.0469 109.885 80.0161 102.548 80.0161C95.5678 80.0161 89.8258 74.6135 89.2836 67.7703L93.7848 63.269C94.284 62.7697 94.5644 62.0929 94.5644 61.3871C94.5644 56.9848 90.9828 53.4032 86.5805 53.4032C82.1782 53.4032 78.5966 56.9848 78.5966 61.3871C78.5966 62.0929 78.8769 62.7697 79.3762 63.2688L83.8773 67.7701C83.3351 74.6135 77.5931 80.0161 70.6127 80.0161C63.2756 80.0161 57.3063 74.0469 57.3063 66.7097C57.3063 66.0284 56.314 44.6722 59.5203 32.1129H60.9171C64.5475 32.1129 67.9167 30.3096 69.9302 27.2892L76.7774 17.0186C77.8092 15.4711 78.4467 13.5091 78.5723 11.5436C81.0386 10.9477 83.7226 10.6452 86.5805 10.6452C89.4384 10.6452 92.1224 10.9477 94.5887 11.5436C94.7143 13.5092 95.3519 15.4711 96.3836 17.0186L103.231 27.2892C103.705 28.0005 104.255 28.6433 104.865 29.2119C102.702 27.6886 100.067 26.7903 97.2256 26.7903C89.8885 26.7903 83.9192 32.7596 83.9192 40.0968C83.9192 47.4339 89.8885 53.4032 97.2256 53.4032C104.563 53.4032 110.532 47.4339 110.532 40.0968C110.532 36.1964 108.845 32.6828 106.163 30.2466C107.93 31.4463 110.039 32.1129 112.244 32.1129H113.667C116.49 42.2377 115.855 52.8348 115.855 66.7097ZM105.21 40.0968C105.21 44.4991 101.628 48.0806 97.2256 48.0806C92.8233 48.0806 89.2418 44.4991 89.2418 40.0968C89.2418 35.6945 92.8233 32.1129 97.2256 32.1129C101.628 32.1129 105.21 35.6945 105.21 40.0968ZM125.752 14.0662L118.905 24.337C117.911 25.8273 116.042 26.7903 114.143 26.7903H112.244C110.397 26.7903 108.684 25.8732 107.66 24.337L100.812 14.0662C100.242 13.2099 99.8869 11.9708 99.8869 10.8325C99.8869 7.79439 102.359 5.32258 105.397 5.32258H121.168C124.205 5.32258 126.677 7.79439 126.677 10.8325C126.677 11.9708 126.323 13.2099 125.752 14.0662Z" fill="#FFC59E"/>
<path d="M75.9357 42.7581C77.4055 42.7581 78.597 41.5666 78.597 40.0968C78.597 38.627 77.4055 37.4355 75.9357 37.4355C74.4659 37.4355 73.2744 38.627 73.2744 40.0968C73.2744 41.5666 74.4659 42.7581 75.9357 42.7581Z" fill="#FFC59E"/>
<path d="M97.2257 42.7581C98.6955 42.7581 99.887 41.5666 99.887 40.0968C99.887 38.627 98.6955 37.4355 97.2257 37.4355C95.756 37.4355 94.5645 38.627 94.5645 40.0968C94.5645 41.5666 95.756 42.7581 97.2257 42.7581Z" fill="#FFC59E"/>
<path d="M43.0771 43.0645H34.783C32.4918 43.0645 30.5133 44.4248 29.6097 46.3796C28.1382 46.0372 26.5558 45.8637 24.8871 45.8637C23.2184 45.8637 21.636 46.0372 20.1644 46.3796C19.2608 44.4248 17.2824 43.0645 14.9911 43.0645H6.69707C3.55573 43.0645 1 45.6202 1 48.7615C1 49.9171 1.3487 51.1029 1.95688 52.0149L5.55786 57.4165C6.13433 58.2813 6.95815 58.9645 7.90673 59.4032C6.14412 66.4652 6.69185 78.3828 6.69185 78.1486C6.69185 83.5509 11.087 87.9461 16.4893 87.9461C17.3735 87.9461 18.2306 87.828 19.046 87.6074C20.3402 89.5805 22.5532 90.8386 24.8871 90.8386C27.221 90.8386 29.434 89.5805 30.7281 87.6074C31.5436 87.828 32.4007 87.9461 33.2849 87.9461C38.6872 87.9461 43.0823 83.5509 43.0823 78.1486C43.0823 71.0177 43.4221 65.0982 41.8819 59.3963C42.8244 58.9574 43.6428 58.2768 44.2162 57.4165L47.8173 52.0149C48.4255 51.1028 48.7742 49.917 48.7742 48.7615C48.7742 45.6202 46.2185 43.0645 43.0771 43.0645ZM7.88704 55.8637L4.28597 50.4621C3.98579 50.0119 3.79927 49.3602 3.79927 48.7615C3.79927 47.1637 5.09925 45.8637 6.69707 45.8637H14.9912C16.5889 45.8637 17.8889 47.1637 17.8889 48.7615C17.8889 49.3603 17.7024 50.0119 17.4022 50.4623L13.8011 55.8639C13.2626 56.6718 12.3612 57.1541 11.3901 57.1541H10.3915C9.39258 57.1541 8.40957 56.6476 7.88704 55.8637ZM24.8871 88.0394C23.651 88.0394 22.4668 87.4362 21.6694 86.4611C22.982 85.6401 24.0874 84.5175 24.8871 83.1908C25.6868 84.5175 26.7922 85.6401 28.1048 86.4611C27.3073 87.4362 26.1232 88.0394 24.8871 88.0394ZM23.5763 74.8585C23.7756 74.3281 24.288 73.9497 24.8871 73.9497C25.4862 73.9497 25.9986 74.3281 26.1979 74.8585L24.8871 76.1693L23.5763 74.8585ZM40.2831 78.1486C40.2831 82.0074 37.1437 85.1468 33.2849 85.1468C29.6138 85.1468 26.5939 82.3055 26.3088 78.7064L28.676 76.3391C28.9386 76.0765 29.086 75.7205 29.086 75.3494C29.086 73.0341 27.2024 71.1505 24.8871 71.1505C22.5718 71.1505 20.6882 73.0341 20.6882 75.3494C20.6882 75.7205 20.8356 76.0765 21.0982 76.339L23.4654 78.7063C23.1803 82.3054 20.1604 85.1468 16.4893 85.1468C12.6305 85.1468 9.49112 82.0074 9.49112 78.1486C9.49112 77.7903 8.96924 66.5586 10.6555 59.9534H11.3901C13.2994 59.9534 15.0714 59.005 16.1303 57.4165L19.7314 52.0149C20.2741 51.2011 20.6093 50.1692 20.6754 49.1355C21.9725 48.8221 23.3841 48.663 24.8871 48.663C26.3901 48.663 27.8017 48.8221 29.0988 49.1355C29.1648 50.1693 29.5002 51.2011 30.0428 52.0149L33.6438 57.4165C33.8932 57.7906 34.1825 58.1286 34.5034 58.4277C33.3655 57.6265 31.9801 57.1541 30.4856 57.1541C26.6268 57.1541 23.4875 60.2935 23.4875 64.1523C23.4875 68.0111 26.6268 71.1505 30.4856 71.1505C34.3444 71.1505 37.4838 68.0111 37.4838 64.1523C37.4838 62.101 36.5966 60.2531 35.1859 58.9719C36.1153 59.6028 37.2242 59.9534 38.3841 59.9534H39.1328C40.6172 65.2782 40.2831 70.8515 40.2831 78.1486ZM34.6845 64.1523C34.6845 66.4676 32.8009 68.3512 30.4856 68.3512C28.1704 68.3512 26.2867 66.4676 26.2867 64.1523C26.2867 61.837 28.1704 59.9534 30.4856 59.9534C32.8009 59.9534 34.6845 61.837 34.6845 64.1523ZM45.4882 50.4622L41.8871 55.8638C41.3645 56.6476 40.3815 57.1541 39.3827 57.1541H38.3841C37.413 57.1541 36.5116 56.6718 35.973 55.8638L32.3719 50.4622C32.0718 50.0119 31.8853 49.3602 31.8853 48.7615C31.8853 47.1637 33.1852 45.8637 34.7831 45.8637H43.0772C44.6749 45.8637 45.9749 47.1637 45.9749 48.7615C45.9749 49.3602 45.7884 50.0119 45.4882 50.4622Z" fill="#FFC59E"/>
<path fill-rule="evenodd" clip-rule="evenodd" d="M0.5 48.7615C0.5 45.344 3.27959 42.5645 6.69707 42.5645H14.9911C17.3408 42.5645 19.3859 43.8788 20.4361 45.8073C21.8373 45.5121 23.3276 45.3637 24.8871 45.3637C26.4466 45.3637 27.9369 45.5121 29.3381 45.8073C30.3882 43.8788 32.4334 42.5645 34.783 42.5645H43.0771C46.4946 42.5645 49.2742 45.344 49.2742 48.7615C49.2742 50.01 48.8993 51.2935 48.2333 52.2923L44.6323 57.6938C44.0829 58.518 43.3313 59.1871 42.468 59.6599C43.6807 64.4176 43.6423 69.3419 43.599 74.9008C43.5908 75.9593 43.5823 77.0409 43.5823 78.1486C43.5823 83.8271 38.9634 88.4461 33.2849 88.4461C32.4798 88.4461 31.6956 88.3529 30.9425 88.177C29.5399 90.1126 27.28 91.3386 24.8871 91.3386C22.4942 91.3386 20.2343 90.1126 18.8317 88.177C18.0786 88.3529 17.2944 88.4461 16.4893 88.4461C10.8199 88.4461 6.20656 83.8418 6.19188 78.1757C6.19163 78.172 6.19145 78.169 6.19134 78.1673C6.19012 78.1476 6.18849 78.1164 6.18668 78.0778C6.18299 77.9994 6.1779 77.8781 6.17208 77.7182C6.16045 77.3983 6.14586 76.9216 6.13391 76.3215C6.10999 75.1215 6.09655 73.4259 6.13843 71.5011C6.21895 67.8001 6.50449 63.2123 7.32775 59.6718C6.45542 59.1984 5.69583 58.5249 5.14184 57.6938M5.14184 57.6938L1.5409 52.2923C1.54088 52.2923 1.54091 52.2924 1.5409 52.2923C0.874889 51.2936 0.5 50.0101 0.5 48.7615M6.19185 78.1486H7.19185C7.19185 83.2748 11.3631 87.4461 16.4893 87.4461C17.3288 87.4461 18.1421 87.334 18.9155 87.1248L19.2654 87.0302L19.4641 87.3332C20.6714 89.1739 22.7317 90.3386 24.8871 90.3386C27.0425 90.3386 29.1027 89.1739 30.3101 87.3332L30.5088 87.0302L30.8587 87.1248C31.6321 87.334 32.4454 87.4461 33.2849 87.4461C38.4111 87.4461 42.5823 83.2748 42.5823 78.1486C42.5823 77.0214 42.5906 75.9275 42.5986 74.8624C42.6418 69.1473 42.6787 64.2635 41.3992 59.5267L41.2895 59.1206L41.6708 58.9431C42.5356 58.5404 43.2808 57.9184 43.8002 57.1392L47.4013 51.7376C47.9516 50.9122 48.2742 49.8239 48.2742 48.7615C48.2742 45.8963 45.9423 43.5645 43.0771 43.5645H34.783C32.6946 43.5645 30.8888 44.8042 30.0636 46.5894L29.8928 46.9589L29.4964 46.8666C28.0655 46.5336 26.5214 46.3637 24.8871 46.3637C23.2528 46.3637 21.7087 46.5336 20.2778 46.8666L19.8814 46.9589L19.7106 46.5894C18.8853 44.8042 17.0795 43.5645 14.9911 43.5645H6.69707C3.83188 43.5645 1.5 45.8963 1.5 48.7615C1.5 49.824 1.82253 50.9123 2.37287 51.7375L5.97389 57.1391C6.49602 57.9224 7.24631 58.5469 8.11663 58.9494L8.492 59.123L8.39185 59.5243C7.5249 62.9978 7.22147 67.6954 7.13819 71.5229C7.09668 73.4309 7.11 75.1122 7.13371 76.3016C7.14556 76.8962 7.15999 77.3674 7.17142 77.6819C7.17715 77.8393 7.1821 77.9569 7.18557 78.0308C7.18734 78.0683 7.18863 78.0926 7.18938 78.1047C7.1901 78.1163 7.18973 78.1069 7.18812 78.0931L7.18585 78.0762C7.18451 78.0679 7.17966 78.0432 7.17579 78.027C7.1628 77.9846 6.99118 77.7517 6.76349 77.6572C6.44744 77.7158 6.21323 78.007 6.20007 78.061C6.19698 78.0798 6.19369 78.108 6.19296 78.1174L6.19205 78.1356L6.19185 78.1486ZM6.69707 46.3637C5.37539 46.3637 4.29927 47.4398 4.29927 48.7615C4.29927 49.2724 4.46232 49.8253 4.70198 50.1847L8.30307 55.5864C8.7264 56.2215 9.54775 56.6541 10.3915 56.6541H11.3901C12.1941 56.6541 12.9393 56.2553 13.385 55.5866L16.9862 50.185C16.9862 50.185 16.9861 50.185 16.9862 50.185C17.2259 49.8253 17.3889 49.2724 17.3889 48.7615C17.3889 47.4398 16.3128 46.3637 14.9912 46.3637H6.69707ZM3.29927 48.7615C3.29927 46.8876 4.82311 45.3637 6.69707 45.3637H14.9912C16.8651 45.3637 18.3889 46.8876 18.3889 48.7615C18.3889 49.4481 18.1789 50.1985 17.8183 50.7396L14.2171 56.1412C14.2171 56.1413 14.2171 56.1412 14.2171 56.1412C13.5859 57.0883 12.5283 57.6541 11.3901 57.6541H10.3915C9.23741 57.6541 8.09273 57.0738 7.471 56.1411L3.86996 50.7395C3.86995 50.7394 3.86996 50.7395 3.86996 50.7395C3.50928 50.1985 3.29927 49.448 3.29927 48.7615ZM34.7831 46.3637C33.4614 46.3637 32.3853 47.4398 32.3853 48.7615C32.3853 49.2723 32.5483 49.8252 32.7879 50.1848C32.7879 50.1848 32.7879 50.1848 32.7879 50.1848L36.3891 55.5865C36.8349 56.2553 37.5801 56.6541 38.3841 56.6541H39.3827C40.2263 56.6541 41.0477 56.2215 41.471 55.5865L45.0722 50.1848C45.3119 49.8253 45.4749 49.2724 45.4749 48.7615C45.4749 47.4398 44.3988 46.3637 43.0772 46.3637H34.7831ZM31.3853 48.7615C31.3853 46.8876 32.9091 45.3637 34.7831 45.3637H43.0772C44.9511 45.3637 46.4749 46.8876 46.4749 48.7615C46.4749 49.448 46.2649 50.1985 45.9043 50.7395L42.3031 56.1412C41.6814 57.0738 40.5367 57.6541 39.3827 57.6541H38.3841C37.2458 57.6541 36.1883 57.0883 35.557 56.1412L31.9559 50.7395C31.5953 50.1985 31.3853 49.448 31.3853 48.7615ZM21.1396 49.5421C21.0193 50.5298 20.6758 51.4999 20.1474 52.2923L16.5464 57.6938C15.3947 59.4214 13.4666 60.4534 11.3901 60.4534H11.0475C10.29 63.6563 10.018 67.8715 9.94084 71.4045C9.87329 74.4983 9.95477 76.9979 9.98251 77.8491C9.98778 78.0109 9.99112 78.1132 9.99112 78.1486C9.99112 81.7313 12.9066 84.6468 16.4893 84.6468C19.82 84.6468 22.5747 82.1265 22.9451 78.8931L20.7447 76.6926C20.7447 76.6926 20.7447 76.6926 20.7447 76.6926C20.3883 76.3363 20.1882 75.8531 20.1882 75.3494C20.1882 72.7579 22.2957 70.6505 24.8871 70.6505C27.4785 70.6505 29.586 72.7579 29.586 75.3494C29.586 75.8532 29.3859 76.3363 29.0296 76.6926L26.8291 78.8932C27.1995 82.1265 29.9541 84.6468 33.2849 84.6468C36.8676 84.6468 39.7831 81.7313 39.7831 78.1486C39.7831 76.9667 39.7916 75.8331 39.7998 74.7412C39.8414 69.2048 39.8749 64.738 38.7501 60.4534H38.3841C37.8779 60.4534 37.3805 60.3919 36.9009 60.274C37.5877 61.406 37.9838 62.7337 37.9838 64.1523C37.9838 68.2872 34.6206 71.6505 30.4856 71.6505C26.3507 71.6505 22.9875 68.2872 22.9875 64.1523C22.9875 60.0173 26.3507 56.6541 30.4856 56.6541C31.2831 56.6541 32.0518 56.7797 32.7731 57.0118L29.6268 52.2923C29.6268 52.2923 29.6268 52.2923 29.6268 52.2923C29.0985 51.4999 28.7549 50.5298 28.6346 49.5421C27.4755 49.2913 26.221 49.163 24.8871 49.163C23.5531 49.163 22.2987 49.2913 21.1396 49.5421ZM34.0598 57.1391C34.2873 57.4803 34.5513 57.7888 34.8443 58.0619L34.2156 58.8365C33.1586 58.0923 31.873 57.6541 30.4856 57.6541C26.903 57.6541 23.9875 60.5696 23.9875 64.1523C23.9875 67.7349 26.903 70.6505 30.4856 70.6505C34.0683 70.6505 36.9838 67.7349 36.9838 64.1523C36.9838 62.2483 36.1609 60.5328 34.8497 59.342L35.4667 58.5582C36.3143 59.1336 37.3256 59.4534 38.3841 59.4534H39.5124L39.6144 59.8191C40.8811 64.363 40.8444 69.091 40.8002 74.7835C40.7918 75.8684 40.7831 76.9883 40.7831 78.1486C40.7831 82.2836 37.4198 85.6468 33.2849 85.6468C29.3507 85.6468 26.1159 82.6027 25.8103 78.7459L25.7921 78.516L28.3224 75.9855C28.4912 75.8167 28.586 75.5879 28.586 75.3494C28.586 73.3102 26.9262 71.6505 24.8871 71.6505C22.848 71.6505 21.1882 73.3102 21.1882 75.3494C21.1882 75.5879 21.2829 75.8167 21.4517 75.9854L23.9821 78.5159L23.9639 78.7458C23.6583 82.6027 20.4235 85.6468 16.4893 85.6468C12.3544 85.6468 8.99112 82.2836 8.99112 78.1486C8.99112 78.1489 8.9911 78.1453 8.99087 78.1352L8.98989 78.0983L8.98594 77.9743C8.98254 77.871 8.97773 77.7281 8.97223 77.5503C8.9612 77.1945 8.94734 76.6985 8.93601 76.0927C8.91334 74.8813 8.90074 73.2303 8.94108 71.3827C9.02151 67.6991 9.31287 63.1913 10.1711 59.8297L10.2671 59.4534H11.3901C13.1322 59.4534 14.7481 58.5885 15.7143 57.1391L19.3154 51.7376C19.8056 51.0024 20.1155 50.0565 20.1764 49.1036L20.1999 48.736L20.558 48.6495C21.8978 48.3258 23.3491 48.163 24.8871 48.163C26.4251 48.163 27.8764 48.3258 29.2162 48.6495L29.5743 48.736L29.5978 49.1036C29.6587 50.0566 29.9686 51.0024 30.4588 51.7376L34.0598 57.1391C34.0598 57.1392 34.0598 57.1391 34.0598 57.1391ZM30.4856 60.4534C28.4465 60.4534 26.7867 62.1131 26.7867 64.1523C26.7867 66.1914 28.4465 67.8512 30.4856 67.8512C32.5248 67.8512 34.1845 66.1914 34.1845 64.1523C34.1845 62.1131 32.5248 60.4534 30.4856 60.4534ZM25.7867 64.1523C25.7867 61.5609 27.8942 59.4534 30.4856 59.4534C33.0771 59.4534 35.1845 61.5609 35.1845 64.1523C35.1845 66.7437 33.0771 68.8512 30.4856 68.8512C27.8942 68.8512 25.7867 66.7437 25.7867 64.1523ZM24.1974 74.7725L24.8871 75.4622L25.5768 74.7725C25.4111 74.5749 25.1628 74.4497 24.8871 74.4497C24.6114 74.4497 24.3631 74.5749 24.1974 74.7725ZM23.1082 74.6826C23.3782 73.9641 24.0724 73.4497 24.8871 73.4497C25.7018 73.4497 26.396 73.9641 26.6659 74.6826L26.7793 74.9842L24.8871 76.8764L22.9949 74.9842L23.1082 74.6826ZM24.8871 82.2222L25.3153 82.9327C26.0743 84.192 27.1238 85.2578 28.3699 86.0371L28.8512 86.3381L28.4918 86.7776C27.6077 87.8587 26.2858 88.5394 24.8871 88.5394C23.4884 88.5394 22.1665 87.8587 21.2824 86.7776L20.923 86.3381L21.4043 86.0371C22.6504 85.2578 23.6999 84.192 24.4589 82.9327L24.8871 82.2222ZM22.438 86.5492C23.1164 87.1742 23.9924 87.5394 24.8871 87.5394C25.7818 87.5394 26.6578 87.1742 27.3362 86.5492C26.3892 85.8768 25.5602 85.0487 24.8871 84.1021C24.214 85.0487 23.385 85.8768 22.438 86.5492Z" fill="#FFC59E"/>
<path d="M19.2883 65.5522C20.0613 65.5522 20.6879 64.9256 20.6879 64.1526C20.6879 63.3796 20.0613 62.7529 19.2883 62.7529C18.5153 62.7529 17.8887 63.3796 17.8887 64.1526C17.8887 64.9256 18.5153 65.5522 19.2883 65.5522Z" fill="#FFC59E"/>
<path fill-rule="evenodd" clip-rule="evenodd" d="M19.2883 63.2529C18.7915 63.2529 18.3887 63.6557 18.3887 64.1526C18.3887 64.6494 18.7915 65.0522 19.2883 65.0522C19.7852 65.0522 20.1879 64.6494 20.1879 64.1526C20.1879 63.6557 19.7852 63.2529 19.2883 63.2529ZM17.3887 64.1526C17.3887 63.1034 18.2392 62.2529 19.2883 62.2529C20.3374 62.2529 21.1879 63.1034 21.1879 64.1526C21.1879 65.2017 20.3374 66.0522 19.2883 66.0522C18.2392 66.0522 17.3887 65.2017 17.3887 64.1526Z" fill="#FFC59E"/>
<path d="M30.4856 65.5522C31.2586 65.5522 31.8852 64.9256 31.8852 64.1526C31.8852 63.3796 31.2586 62.7529 30.4856 62.7529C29.7126 62.7529 29.0859 63.3796 29.0859 64.1526C29.0859 64.9256 29.7126 65.5522 30.4856 65.5522Z" fill="#FFC59E"/>
<path fill-rule="evenodd" clip-rule="evenodd" d="M30.4856 63.2529C29.9887 63.2529 29.5859 63.6557 29.5859 64.1526C29.5859 64.6494 29.9887 65.0522 30.4856 65.0522C30.9824 65.0522 31.3852 64.6494 31.3852 64.1526C31.3852 63.6557 30.9824 63.2529 30.4856 63.2529ZM28.5859 64.1526C28.5859 63.1034 29.4364 62.2529 30.4856 62.2529C31.5347 62.2529 32.3852 63.1034 32.3852 64.1526C32.3852 65.2017 31.5347 66.0522 30.4856 66.0522C29.4364 66.0522 28.5859 65.2017 28.5859 64.1526Z" fill="#FFC59E"/>
</svg>
