<svg width="110" height="110" viewBox="0 0 110 110" fill="none" xmlns="http://www.w3.org/2000/svg">
<path d="M95.26 55.7526L101.499 49.5134C112.833 38.1797 112.834 19.8353 101.499 8.50063C90.1661 -2.83279 71.8215 -2.83429 60.4868 8.50063C58.0676 10.9193 10.6949 58.2925 8.50071 60.4867C-2.83292 71.8203 -2.83421 90.1647 8.50071 101.499C19.8339 112.833 38.1785 112.834 49.5132 101.499L55.7527 95.2602C60.7405 104.05 70.1852 109.993 80.9929 109.993C96.9837 109.993 109.993 96.9839 109.993 80.9931C109.993 70.1852 104.05 60.7404 95.26 55.7526ZM51.9925 80.9928C51.9925 83.7074 52.3685 86.3358 53.0691 88.8297L44.9564 96.9424C36.1416 105.757 21.8736 105.758 13.0577 96.9424C4.24294 88.1278 4.24165 73.8596 13.0577 65.0437L36.5756 41.5259L58.1699 63.12C54.3017 68.0488 51.9925 74.2562 51.9925 80.9928ZM77.7705 103.318C66.8541 101.749 58.437 92.3364 58.437 80.9928C58.437 69.6493 66.8541 60.2364 77.7705 58.668V103.318ZM62.684 58.5204L41.1324 36.9689L65.0436 13.0577C73.8584 4.24308 88.1264 4.24179 96.9423 13.0577C105.757 21.8723 105.758 36.1404 96.9423 44.9563L88.8296 53.069C86.3357 52.3682 83.7075 51.9924 80.9929 51.9924C74.0556 51.9924 67.6804 54.4423 62.684 58.5204ZM84.2152 103.318V58.6683C95.1316 60.2366 103.549 69.6496 103.549 80.9931C103.549 92.3364 95.1316 101.749 84.2152 103.318Z" fill="#FFC59E"/>
</svg>
