<svg width="228" height="178" viewBox="0 0 228 178" fill="none" xmlns="http://www.w3.org/2000/svg">
<path d="M5.00825 133.157C8.58464 131.18 9.97729 134.405 7.65948 135.062C2.53533 136.514 4.14286 143.523 9.26824 144.873C12.946 145.842 23.0433 144.514 25.5467 143.884C26.046 143.664 30.927 143.464 35.9534 143.412C40.9798 143.36 48.9809 145.518 51.1132 145.83C53.2459 146.142 56.7238 146.766 58.8811 146.792C61.0392 146.818 64.5809 145.44 64.6447 145.427C64.7077 145.414 64.8853 145.219 65.3046 144.725C65.7235 144.231 67.1068 143.256 67.2083 143.269C67.3101 143.282 67.4623 143.633 67.5384 144.257C67.6145 144.881 67.2847 145.323 67.2847 145.323C67.2847 145.323 69.2522 144.803 69.2522 145.114C69.2522 145.427 68.7318 146.337 68.6807 146.428C68.6303 146.519 70.7119 148.118 71.2323 148.859C71.7527 149.6 71.5498 149.561 71.702 150.432C71.8542 151.303 73.1871 153.513 73.2378 153.734C73.2889 153.955 73.2505 153.994 73.0349 154.176C72.8189 154.358 72.8573 154.254 72.6033 154.501C72.3492 154.748 71.4352 155.879 70.3695 156.399C69.3029 156.919 69.1254 156.477 68.2875 155.983C67.45 155.489 63.5405 156.113 62.8041 156.685C62.2019 157.153 60.9027 158.422 60.4502 158.868L60.2909 159.025C60.2909 159.025 60.0876 159.338 59.8343 160.534C59.5802 161.729 59.6817 162.925 59.9865 164.902C60.2909 166.878 63.464 171.453 63.9464 171.843C64.4287 172.233 65.2919 172.649 65.9011 173.326C66.5103 174.002 65.9772 174.417 65.3169 174.626C64.6574 174.833 63.0324 174.495 62.5247 174.287C62.0173 174.079 61.7633 172.624 60.0876 171.428C58.4122 170.232 55.7722 168.047 55.3659 166.955C54.9597 165.863 54.6042 162.848 54.6042 162.848C54.6042 162.848 54.2487 163.679 53.1318 165.083C52.0145 166.487 49.4252 168.827 49.4252 169.816C49.4252 170.803 49.73 172.415 50.0855 173.039C50.4406 173.663 50.9487 173.715 51.4053 173.871L51.6375 173.948C52.0291 174.08 52.438 174.253 52.7762 174.86C53.1825 175.587 52.7255 175.796 51.9641 175.796C51.2027 175.796 50.1362 176.16 48.816 175.64C47.4962 175.119 45.0591 170.7 44.5006 169.607C43.9422 168.516 45.1605 166.488 45.6686 165.551C46.1759 164.615 46.887 163.368 46.887 163.368C46.887 163.368 42.2161 163.42 39.779 162.796C37.3419 162.172 34.5448 161.964 34.5448 161.964C34.5448 161.964 34.3415 163.108 33.9356 164.772C33.5293 166.436 31.6 168.36 31.3966 168.984C31.1937 169.608 32.5139 170.908 33.2753 171.74C34.0367 172.572 35.5602 173.144 36.1694 173.56C36.7786 173.976 37.4892 174.652 37.083 175.484C36.6767 176.316 36.3216 175.588 35.6109 175.744C34.8999 175.9 33.1231 176.16 31.9047 175.9C30.6861 175.64 30.6352 174.08 29.0106 172.676C27.3859 171.272 25.7104 169.712 25.8626 168.776C26.0149 167.84 26.2182 163.628 26.1674 163.368C26.1166 163.108 24.0348 164.824 21.8009 165.916C19.567 167.008 14.9978 168.126 14.7184 168.88C14.4391 169.634 13.5254 173.119 13.6776 174.158C13.8298 175.198 14.1092 175.796 14.3886 176.342L14.5066 176.574C14.6669 176.896 14.6423 176.936 14.3886 177.175C14.0838 177.46 11.8753 177.2 11.3928 176.524C10.9107 175.848 10.0224 171.74 10.3523 170.83C10.6822 169.92 12.4594 163.94 13.1195 163.42C13.7793 162.9 16.1658 161.444 17.4857 158.168C18.5316 155.573 18.2074 151.575 18.6584 149.302C11.4084 149.232 2.20958 149.99 1.01875 139.732C0.686288 136.869 2.53342 134.525 5.00825 133.157ZM145.259 0.770004L209.667 156.837C212.805 164.434 218.379 168.233 226.389 168.233H227.38V173.559H146.497V168.233C161.526 167.737 169.04 164.186 169.04 157.58C169.04 155.764 168.71 154.071 168.05 152.502L156.159 123.89H98.067L89.149 146.68C87.9929 149.653 87.4147 152.543 87.4147 155.351C87.4147 163.443 94.021 167.737 107.233 168.233V173.559L71.5469 173.568C73.8537 166.907 79.0088 153.796 79.4017 152.738C79.9083 151.37 80.6529 149.486 80.6402 148.101C80.6275 146.717 81.0438 144.663 80.2757 142.048C79.508 139.432 78.5944 137.192 78.4601 135.773C78.3266 134.353 78.7567 130.611 78.8999 128.222C79.0435 125.833 79.3181 121.595 79.6173 121.291C79.9165 120.987 79.8191 120.738 80.6402 120.682C81.4613 120.626 81.9235 120.457 83.1041 120.574C84.2845 120.69 85.614 120.304 86.6168 120.259C87.6195 120.214 88.6842 120.288 90.0111 119.559C91.3384 118.83 91.5689 118.187 92.0938 117.583C92.6187 116.98 93.2756 115.923 93.4935 115.342C93.711 114.762 93.8378 114.399 92.7425 114.155C91.6473 113.911 89.891 113.039 88.6767 112.797C87.4628 112.555 85.9923 112.248 85.3954 111.691C84.7985 111.135 84.5284 110.461 84.1017 110.038C83.6749 109.615 83.4369 109.394 82.4696 109.071C81.5027 108.748 79.8497 107.758 79.2562 107.604C78.6623 107.449 77.9009 107.281 77.7379 106.951C77.5745 106.622 76.6009 104.435 76.1957 103.424C75.7902 102.413 75.0023 100.699 74.6987 100.735C74.3954 100.772 74.1078 103.431 73.4736 105.019C72.8394 106.607 71.9236 108.091 71.8882 108.907C71.8531 109.722 71.0634 111.008 70.4441 112.04C69.8252 113.071 67.7328 116.96 66.9162 119.761C66.0996 122.562 64.4295 128.696 63.3876 129.737C62.3453 130.777 56.4586 134.459 54.9082 135.524C54.4445 135.842 54.0846 136.093 53.7615 136.31L109.375 0.770004H145.259ZM126.184 51.306L101.907 113.981H152.071L126.184 51.306Z" fill="#FFFEFE"/>
</svg>
